<svg xmlns="http://www.w3.org/2000/svg" width="64.235" height="43.227" viewBox="0 0 64.235 43.227">
  <path id="code" d="M21.424,22.892q-.316.632-.632,1.237t-.579,1.237q-4.528-4.791-9.267-9.977T1.68,5.411V2.042Q6.208-2.75,10.947-7.91t9.267-9.9l1.211,2.369L4.1,3.621ZM63.545,3.621q-4.212-4.633-8.714-9.5t-8.661-9.451L46.8-16.6q.316-.632.632-1.211,4.581,4.9,9.214,9.9t9.267,9.951v3.37l-9.24,10-9.24,10q-.263-.527-.632-1.316a11.878,11.878,0,0,0-.632-1.211Z" transform="translate(-1.68 17.808)"/>
</svg>
