<svg xmlns="http://www.w3.org/2000/svg" width="31.32" height="42.714" viewBox="0 0 31.32 42.714">
  <path id="bold" d="M2.376.108c9.288,0,13.986-4.266,13.986-12.312A9.777,9.777,0,0,0,9.018-22.14c3.834-1.3,6.1-4.32,6.1-8.8,0-7.668-4.59-11.664-13.662-11.664H-14.958V.108Zm5.076-12.8c0,4.05-2.052,5.616-6.426,5.616H-6.048V-18.252H1.026C5.4-18.252,7.452-16.74,7.452-12.69ZM6.372-30.348c0,3.834-2.16,5.022-6.318,5.022h-6.1V-35.37h6.1C4.212-35.37,6.372-34.128,6.372-30.348Z" transform="translate(14.958 42.606)" fill="#332b2b"/>
</svg>
