<svg xmlns="http://www.w3.org/2000/svg" width="82.651" height="52.825" viewBox="0 0 82.651 52.825">
  <g id="number_list" data-name="number list" transform="translate(-0.985 -3.528)">
    <line id="선_221" data-name="선 221" x2="66.548" transform="translate(17.088 15.449)" fill="none" stroke="#000" stroke-width="1"/>
    <line id="선_222" data-name="선 222" x2="66.548" transform="translate(17.088 36.839)" fill="none" stroke="#000" stroke-width="1"/>
    <line id="선_223" data-name="선 223" x2="66.548" transform="translate(17.088 55.853)" fill="none" stroke="#000" stroke-width="1"/>
    <path id="패스_454" data-name="패스 454" d="M-.336.028V-11.046H-2.03L-4.8-9.786v1.848l2.478-1.106V.028Zm5.754-2.1H3.3v2.1H5.418Z" transform="translate(6.865 14.574)" fill="#332b2b"/>
    <path id="패스_455" data-name="패스 455" d="M1.274-7.9a3.241,3.241,0,0,0-3.486-3.346A3.249,3.249,0,0,0-5.7-7.9v.35H-3.71v-.336a1.474,1.474,0,0,1,1.5-1.68,1.474,1.474,0,0,1,1.5,1.68A2.381,2.381,0,0,1-1.428-6.23L-5.544-1.484V.028H1.428V-1.638H-2.94L.2-5.25A3.416,3.416,0,0,0,1.274-7.9ZM5.418-2.072H3.3v2.1H5.418Z" transform="translate(6.865 35.574)" fill="#332b2b"/>
    <path id="패스_456" data-name="패스 456" d="M-5.88-3.108C-5.88-1.064-4.368.224-2.212.224S1.442-1.064,1.442-3.108A2.62,2.62,0,0,0-.532-5.852,2.467,2.467,0,0,0,1.106-8.274c0-1.694-1.2-2.968-3.318-2.968S-5.544-9.968-5.544-8.274v.252h1.96v-.1A1.32,1.32,0,0,1-2.212-9.562,1.317,1.317,0,0,1-.854-8.12,1.339,1.339,0,0,1-2.268-6.65H-3.36v1.624h1.092A1.634,1.634,0,0,1-.546-3.22,1.612,1.612,0,0,1-2.212-1.442,1.612,1.612,0,0,1-3.878-3.22v-.112h-2Zm11.3,1.036H3.3v2.1H5.418Z" transform="translate(6.865 55.574)" fill="#332b2b"/>
  </g>
</svg>
