<svg xmlns="http://www.w3.org/2000/svg" width="76.003" height="51.384" viewBox="0 0 76.003 51.384">
  <g id="image" transform="translate(-0.02 -0.349)">
    <g id="사각형_529" data-name="사각형 529" transform="translate(0.02 0.349)" fill="#fff" stroke="#000" stroke-width="1">
      <rect width="76" height="51" stroke="none"/>
      <rect x="0.5" y="0.5" width="75" height="50" fill="none"/>
    </g>
    <g id="그룹_993" data-name="그룹 993" transform="translate(0.81 14.308)">
      <g id="합치기_13" data-name="합치기 13" transform="translate(-0.241 -0.163)" fill="#fff" stroke-linecap="round" stroke-linejoin="round">
        <path d="M 74.45069885253906 37.08760070800781 L 24.81929969787598 37.08760070800781 L 0.9981003999710083 37.08760070800781 C 0.802130401134491 37.08760070800781 0.6340404152870178 36.98224258422852 0.5484804511070251 36.80577087402344 C 0.4627804160118103 36.6290397644043 0.4842404127120972 36.43146133422852 0.6058804392814636 36.27725219726562 L 17.90015983581543 14.36870098114014 C 17.99543952941895 14.24815082550049 18.13867950439453 14.17888069152832 18.29294967651367 14.17888069152832 C 18.44721984863281 14.17888069152832 18.5904598236084 14.24815082550049 18.68593978881836 14.36895084381104 L 29.42969131469727 27.9792308807373 L 29.84692001342773 28.50778007507324 L 30.23221015930176 27.95552062988281 L 49.22515869140625 0.7324908971786499 C 49.32003021240234 0.596410870552063 49.46937942504883 0.518450915813446 49.63500213623047 0.518450915813446 C 49.80062103271484 0.518450915813446 49.94997024536133 0.596410870552063 50.04473876953125 0.7323508858680725 L 74.86054229736328 36.3013916015625 C 74.96919250488281 36.45718002319336 74.98165893554688 36.65072250366211 74.89385223388672 36.81901931762695 C 74.80609893798828 36.98720169067383 74.64044189453125 37.08760070800781 74.45069885253906 37.08760070800781 Z" stroke="none"/>
        <path d="M 74.45069885253906 36.58760070800781 L 74.45055389404297 36.58760070800781 C 74.45053100585938 36.58756256103516 74.45050048828125 36.58752822875977 74.45047760009766 36.58749008178711 L 49.63522338867188 1.018589735031128 L 30.64226722717285 28.24161148071289 C 30.46120071411133 28.50113487243652 30.16797828674316 28.65964508056641 29.8516788482666 28.66898918151855 C 29.53528594970703 28.67835235595703 29.23329925537109 28.53741073608398 29.03723335266113 28.28902244567871 L 18.29261207580566 14.67850112915039 L 0.9984560012817383 36.5869026184082 C 0.9983046650886536 36.58708953857422 0.9986087679862976 36.58730316162109 0.9981003999710083 36.58760070800781 L 74.45069885253906 36.58760070800781 M 74.45069885253906 37.58760070800781 L 0.9981003999710083 37.58760070800781 C 0.1629004329442978 37.58760070800781 -0.3041995763778687 36.62369918823242 0.213300421833992 35.96760177612305 L 17.50769996643066 14.05890083312988 C 17.90820121765137 13.5521993637085 18.67770004272461 13.55220127105713 19.07820129394531 14.05890083312988 L 29.82214546203613 27.66942405700684 L 48.81510162353516 0.446400910615921 C 49.2129020690918 -0.1241956278681755 50.05710601806641 -0.1242025941610336 50.45489883422852 0.446400910615921 L 75.27059936523438 36.01530075073242 C 75.73320007324219 36.6786003112793 75.25890350341797 37.58760070800781 74.45069885253906 37.58760070800781 Z" stroke="none" fill="#000"/>
      </g>
    </g>
  </g>
</svg>
